<mxfile host="app.diagrams.net" modified="2023-11-12T22:52:09.136Z" agent="Mozilla/5.0 (Macintosh; Intel Mac OS X 10_15_7) AppleWebKit/537.36 (KHTML, like Gecko) Chrome/105.0.0.0 Safari/537.36" etag="uVqaQVoDZPxSenaUaZmK" version="22.1.0" type="device">
  <diagram name="Page-1" id="1VrzVW-zOHMod4vHWDAO">
    <mxGraphModel dx="1602" dy="3536" grid="1" gridSize="10" guides="1" tooltips="1" connect="1" arrows="1" fold="1" page="1" pageScale="1" pageWidth="827" pageHeight="1169" math="0" shadow="0">
      <root>
        <mxCell id="0" />
        <mxCell id="1" parent="0" />
        <mxCell id="8f19t0Ze3PnC0a54eQCc-81" value="" style="html=1;whiteSpace=wrap;fillColor=#d5e8d4;strokeColor=#82b366;" vertex="1" parent="1">
          <mxGeometry x="10" y="-2290" width="1350" height="1060" as="geometry" />
        </mxCell>
        <mxCell id="8f19t0Ze3PnC0a54eQCc-82" value="«subsystem»&lt;br style=&quot;border-color: var(--border-color);&quot;&gt;&lt;b style=&quot;border-color: var(--border-color);&quot;&gt;Loop platform&amp;nbsp;&lt;/b&gt;" style="text;html=1;align=center;verticalAlign=middle;resizable=0;points=[];autosize=1;strokeColor=none;fillColor=none;" vertex="1" parent="1">
          <mxGeometry x="600" y="-2280" width="110" height="40" as="geometry" />
        </mxCell>
        <mxCell id="8f19t0Ze3PnC0a54eQCc-83" value="" style="html=1;whiteSpace=wrap;fillColor=#d0cee2;strokeColor=#56517e;" vertex="1" parent="1">
          <mxGeometry x="50" y="-2220" width="310" height="970" as="geometry" />
        </mxCell>
        <mxCell id="8f19t0Ze3PnC0a54eQCc-84" value="«subsystem»&lt;br style=&quot;border-color: var(--border-color);&quot;&gt;&lt;b style=&quot;border-color: var(--border-color);&quot;&gt;Front-end&lt;/b&gt;" style="text;html=1;align=center;verticalAlign=middle;resizable=0;points=[];autosize=1;strokeColor=none;fillColor=none;" vertex="1" parent="1">
          <mxGeometry x="160" y="-2210" width="90" height="40" as="geometry" />
        </mxCell>
        <mxCell id="8f19t0Ze3PnC0a54eQCc-85" value="«Web-App»&lt;br style=&quot;border-color: var(--border-color);&quot;&gt;&lt;b style=&quot;border-color: var(--border-color);&quot;&gt;Public&amp;nbsp; website&lt;/b&gt;" style="html=1;whiteSpace=wrap;fillColor=#d5e8d4;strokeColor=#82b366;" vertex="1" parent="1">
          <mxGeometry x="80" y="-2140" width="260" height="50" as="geometry" />
        </mxCell>
        <mxCell id="8f19t0Ze3PnC0a54eQCc-95" value="«Web-App»&lt;br style=&quot;border-color: var(--border-color);&quot;&gt;&lt;b style=&quot;border-color: var(--border-color);&quot;&gt;Adminstration webapp&lt;/b&gt;" style="html=1;whiteSpace=wrap;fillColor=#d5e8d4;strokeColor=#82b366;" vertex="1" parent="1">
          <mxGeometry x="80" y="-2080" width="260" height="50" as="geometry" />
        </mxCell>
        <mxCell id="8f19t0Ze3PnC0a54eQCc-96" value="«Mobile-App»&lt;br style=&quot;border-color: var(--border-color);&quot;&gt;&lt;b style=&quot;border-color: var(--border-color);&quot;&gt;Sales agents&lt;/b&gt;" style="html=1;whiteSpace=wrap;fillColor=#d5e8d4;strokeColor=#82b366;gradientColor=#97d077;" vertex="1" parent="1">
          <mxGeometry x="80" y="-1680" width="260" height="50" as="geometry" />
        </mxCell>
        <mxCell id="8f19t0Ze3PnC0a54eQCc-97" value="«Web-App»&lt;br style=&quot;border-color: var(--border-color);&quot;&gt;&lt;b style=&quot;border-color: var(--border-color);&quot;&gt;Reporting webapp&lt;/b&gt;" style="html=1;whiteSpace=wrap;fillColor=#d5e8d4;strokeColor=#82b366;" vertex="1" parent="1">
          <mxGeometry x="80" y="-1900" width="260" height="50" as="geometry" />
        </mxCell>
        <mxCell id="8f19t0Ze3PnC0a54eQCc-98" value="«Mobile-App»&lt;br style=&quot;border-color: var(--border-color);&quot;&gt;&lt;b style=&quot;border-color: var(--border-color);&quot;&gt;Customer app&lt;/b&gt;" style="html=1;whiteSpace=wrap;fillColor=#d5e8d4;strokeColor=#82b366;gradientColor=#97d077;" vertex="1" parent="1">
          <mxGeometry x="80" y="-1600" width="260" height="50" as="geometry" />
        </mxCell>
        <mxCell id="8f19t0Ze3PnC0a54eQCc-99" value="«Web-App»&lt;br style=&quot;border-color: var(--border-color);&quot;&gt;&lt;b style=&quot;border-color: var(--border-color);&quot;&gt;Agents webapp&lt;/b&gt;" style="html=1;whiteSpace=wrap;fillColor=#d5e8d4;strokeColor=#82b366;" vertex="1" parent="1">
          <mxGeometry x="80" y="-1960" width="260" height="50" as="geometry" />
        </mxCell>
        <mxCell id="8f19t0Ze3PnC0a54eQCc-100" value="«Web-App»&lt;br style=&quot;border-color: var(--border-color);&quot;&gt;&lt;b style=&quot;border-color: var(--border-color);&quot;&gt;Member webapp&lt;/b&gt;" style="html=1;whiteSpace=wrap;fillColor=#d5e8d4;strokeColor=#82b366;" vertex="1" parent="1">
          <mxGeometry x="80" y="-2020" width="260" height="50" as="geometry" />
        </mxCell>
        <mxCell id="8f19t0Ze3PnC0a54eQCc-101" value="" style="html=1;whiteSpace=wrap;fillColor=#dae8fc;gradientColor=#7ea6e0;strokeColor=#6c8ebf;" vertex="1" parent="1">
          <mxGeometry x="370" y="-2215" width="940" height="965" as="geometry" />
        </mxCell>
        <mxCell id="8f19t0Ze3PnC0a54eQCc-102" value="«subsystem»&lt;br style=&quot;border-color: var(--border-color);&quot;&gt;&lt;b style=&quot;border-color: var(--border-color);&quot;&gt;Back-end&lt;/b&gt;" style="text;html=1;align=center;verticalAlign=middle;resizable=0;points=[];autosize=1;strokeColor=none;fillColor=none;" vertex="1" parent="1">
          <mxGeometry x="580" y="-2200" width="90" height="40" as="geometry" />
        </mxCell>
        <mxCell id="8f19t0Ze3PnC0a54eQCc-103" value="" style="html=1;whiteSpace=wrap;fillColor=#f8cecc;gradientColor=#ea6b66;strokeColor=#b85450;" vertex="1" parent="1">
          <mxGeometry x="400" y="-2110" width="650" height="270" as="geometry" />
        </mxCell>
        <mxCell id="8f19t0Ze3PnC0a54eQCc-106" value="«&lt;b style=&quot;border-color: var(--border-color);&quot;&gt;&amp;nbsp;&lt;font style=&quot;font-size: 9px;&quot;&gt;Component&lt;/font&gt;&lt;/b&gt;»&lt;br&gt;&lt;b&gt;Agents management&amp;nbsp;&lt;/b&gt;" style="html=1;dropTarget=0;whiteSpace=wrap;fillColor=#fff2cc;gradientColor=#ffd966;strokeColor=#d6b656;" vertex="1" parent="1">
          <mxGeometry x="410" y="-2060" width="180" height="90" as="geometry" />
        </mxCell>
        <mxCell id="8f19t0Ze3PnC0a54eQCc-107" value="" style="shape=module;jettyWidth=8;jettyHeight=4;" vertex="1" parent="8f19t0Ze3PnC0a54eQCc-106">
          <mxGeometry x="1" width="20" height="20" relative="1" as="geometry">
            <mxPoint x="-27" y="7" as="offset" />
          </mxGeometry>
        </mxCell>
        <mxCell id="8f19t0Ze3PnC0a54eQCc-108" value="«&lt;b style=&quot;border-color: var(--border-color);&quot;&gt;&amp;nbsp;&lt;font style=&quot;font-size: 9px;&quot;&gt;Component&lt;/font&gt;&lt;/b&gt;»&lt;br&gt;&lt;b&gt;Membership management&amp;nbsp;&lt;/b&gt;" style="html=1;dropTarget=0;whiteSpace=wrap;fillColor=#fff2cc;gradientColor=#ffd966;strokeColor=#d6b656;" vertex="1" parent="1">
          <mxGeometry x="620" y="-2060" width="180" height="90" as="geometry" />
        </mxCell>
        <mxCell id="8f19t0Ze3PnC0a54eQCc-109" value="" style="shape=module;jettyWidth=8;jettyHeight=4;" vertex="1" parent="8f19t0Ze3PnC0a54eQCc-108">
          <mxGeometry x="1" width="20" height="20" relative="1" as="geometry">
            <mxPoint x="-27" y="7" as="offset" />
          </mxGeometry>
        </mxCell>
        <mxCell id="8f19t0Ze3PnC0a54eQCc-112" value="«&lt;b style=&quot;border-color: var(--border-color);&quot;&gt;&amp;nbsp;&lt;font style=&quot;font-size: 9px;&quot;&gt;Component&lt;/font&gt;&lt;/b&gt;»&lt;br&gt;&lt;b&gt;Billing&lt;/b&gt;" style="html=1;dropTarget=0;whiteSpace=wrap;fillColor=#fff2cc;gradientColor=#ffd966;strokeColor=#d6b656;" vertex="1" parent="1">
          <mxGeometry x="840" y="-2060" width="180" height="90" as="geometry" />
        </mxCell>
        <mxCell id="8f19t0Ze3PnC0a54eQCc-113" value="" style="shape=module;jettyWidth=8;jettyHeight=4;" vertex="1" parent="8f19t0Ze3PnC0a54eQCc-112">
          <mxGeometry x="1" width="20" height="20" relative="1" as="geometry">
            <mxPoint x="-27" y="7" as="offset" />
          </mxGeometry>
        </mxCell>
        <mxCell id="8f19t0Ze3PnC0a54eQCc-114" value="«&lt;b style=&quot;border-color: var(--border-color);&quot;&gt;&amp;nbsp;&lt;font style=&quot;font-size: 9px;&quot;&gt;Component&lt;/font&gt;&lt;/b&gt;»&lt;br&gt;&lt;b&gt;Insurance quotes&amp;nbsp;&lt;/b&gt;" style="html=1;dropTarget=0;whiteSpace=wrap;fillColor=#fff2cc;gradientColor=#ffd966;strokeColor=#d6b656;" vertex="1" parent="1">
          <mxGeometry x="410" y="-1950" width="180" height="90" as="geometry" />
        </mxCell>
        <mxCell id="8f19t0Ze3PnC0a54eQCc-115" value="" style="shape=module;jettyWidth=8;jettyHeight=4;" vertex="1" parent="8f19t0Ze3PnC0a54eQCc-114">
          <mxGeometry x="1" width="20" height="20" relative="1" as="geometry">
            <mxPoint x="-27" y="7" as="offset" />
          </mxGeometry>
        </mxCell>
        <mxCell id="8f19t0Ze3PnC0a54eQCc-116" value="«&lt;b style=&quot;border-color: var(--border-color);&quot;&gt;&amp;nbsp;&lt;font style=&quot;font-size: 9px;&quot;&gt;Component&lt;/font&gt;&lt;/b&gt;»&lt;br&gt;&lt;b&gt;Policy management&amp;nbsp;&lt;/b&gt;" style="html=1;dropTarget=0;whiteSpace=wrap;fillColor=#fff2cc;gradientColor=#ffd966;strokeColor=#d6b656;" vertex="1" parent="1">
          <mxGeometry x="620" y="-1950" width="180" height="90" as="geometry" />
        </mxCell>
        <mxCell id="8f19t0Ze3PnC0a54eQCc-117" value="" style="shape=module;jettyWidth=8;jettyHeight=4;" vertex="1" parent="8f19t0Ze3PnC0a54eQCc-116">
          <mxGeometry x="1" width="20" height="20" relative="1" as="geometry">
            <mxPoint x="-27" y="7" as="offset" />
          </mxGeometry>
        </mxCell>
        <mxCell id="8f19t0Ze3PnC0a54eQCc-120" value="" style="edgeStyle=orthogonalEdgeStyle;rounded=0;orthogonalLoop=1;jettySize=auto;html=1;" edge="1" parent="1" source="8f19t0Ze3PnC0a54eQCc-118" target="8f19t0Ze3PnC0a54eQCc-112">
          <mxGeometry relative="1" as="geometry" />
        </mxCell>
        <mxCell id="8f19t0Ze3PnC0a54eQCc-118" value="«&lt;b style=&quot;border-color: var(--border-color);&quot;&gt;&amp;nbsp;&lt;font style=&quot;font-size: 9px;&quot;&gt;Component&lt;/font&gt;&lt;/b&gt;»&lt;br&gt;&lt;b&gt;Pricing calculator&amp;nbsp;&lt;/b&gt;" style="html=1;dropTarget=0;whiteSpace=wrap;fillColor=#fff2cc;gradientColor=#ffd966;strokeColor=#d6b656;" vertex="1" parent="1">
          <mxGeometry x="840" y="-1950" width="180" height="90" as="geometry" />
        </mxCell>
        <mxCell id="8f19t0Ze3PnC0a54eQCc-119" value="" style="shape=module;jettyWidth=8;jettyHeight=4;" vertex="1" parent="8f19t0Ze3PnC0a54eQCc-118">
          <mxGeometry x="1" width="20" height="20" relative="1" as="geometry">
            <mxPoint x="-27" y="7" as="offset" />
          </mxGeometry>
        </mxCell>
        <mxCell id="8f19t0Ze3PnC0a54eQCc-122" value="«subsystem»&lt;br style=&quot;border-color: var(--border-color);&quot;&gt;&lt;b style=&quot;border-color: var(--border-color);&quot;&gt;Incursion service&amp;nbsp;&lt;/b&gt;" style="text;html=1;align=center;verticalAlign=middle;resizable=0;points=[];autosize=1;strokeColor=none;fillColor=none;" vertex="1" parent="1">
          <mxGeometry x="656" y="-2110" width="130" height="40" as="geometry" />
        </mxCell>
        <mxCell id="8f19t0Ze3PnC0a54eQCc-123" value="" style="html=1;whiteSpace=wrap;fillColor=#f8cecc;gradientColor=#ea6b66;strokeColor=#b85450;" vertex="1" parent="1">
          <mxGeometry x="400" y="-1793" width="634" height="280" as="geometry" />
        </mxCell>
        <mxCell id="8f19t0Ze3PnC0a54eQCc-124" value="«subsystem»&lt;br style=&quot;border-color: var(--border-color);&quot;&gt;&lt;b style=&quot;border-color: var(--border-color);&quot;&gt;Web contents management services&amp;nbsp;&amp;nbsp;&lt;/b&gt;" style="text;html=1;align=center;verticalAlign=middle;resizable=0;points=[];autosize=1;strokeColor=none;fillColor=none;" vertex="1" parent="1">
          <mxGeometry x="605" y="-1793" width="240" height="40" as="geometry" />
        </mxCell>
        <mxCell id="8f19t0Ze3PnC0a54eQCc-125" value="«&lt;b style=&quot;border-color: var(--border-color);&quot;&gt;&amp;nbsp;&lt;font style=&quot;font-size: 9px;&quot;&gt;Component&lt;/font&gt;&lt;/b&gt;»&lt;br&gt;&lt;b&gt;CMS&lt;/b&gt;" style="html=1;dropTarget=0;whiteSpace=wrap;fillColor=#fff2cc;gradientColor=#ffd966;strokeColor=#d6b656;" vertex="1" parent="1">
          <mxGeometry x="425" y="-1750" width="180" height="90" as="geometry" />
        </mxCell>
        <mxCell id="8f19t0Ze3PnC0a54eQCc-126" value="" style="shape=module;jettyWidth=8;jettyHeight=4;" vertex="1" parent="8f19t0Ze3PnC0a54eQCc-125">
          <mxGeometry x="1" width="20" height="20" relative="1" as="geometry">
            <mxPoint x="-27" y="7" as="offset" />
          </mxGeometry>
        </mxCell>
        <mxCell id="8f19t0Ze3PnC0a54eQCc-127" value="«&lt;b style=&quot;border-color: var(--border-color);&quot;&gt;&amp;nbsp;&lt;font style=&quot;font-size: 9px;&quot;&gt;Component&lt;/font&gt;&lt;/b&gt;»&lt;br&gt;&lt;b&gt;Account managements&lt;/b&gt;" style="html=1;dropTarget=0;whiteSpace=wrap;fillColor=#fff2cc;gradientColor=#ffd966;strokeColor=#d6b656;" vertex="1" parent="1">
          <mxGeometry x="640" y="-1750" width="180" height="90" as="geometry" />
        </mxCell>
        <mxCell id="8f19t0Ze3PnC0a54eQCc-128" value="" style="shape=module;jettyWidth=8;jettyHeight=4;" vertex="1" parent="8f19t0Ze3PnC0a54eQCc-127">
          <mxGeometry x="1" width="20" height="20" relative="1" as="geometry">
            <mxPoint x="-27" y="7" as="offset" />
          </mxGeometry>
        </mxCell>
        <mxCell id="8f19t0Ze3PnC0a54eQCc-131" value="«&lt;b style=&quot;border-color: var(--border-color);&quot;&gt;&amp;nbsp;&lt;font style=&quot;font-size: 9px;&quot;&gt;Component&lt;/font&gt;&lt;/b&gt;»&lt;br&gt;&lt;b&gt;Banners managements&lt;/b&gt;" style="html=1;dropTarget=0;whiteSpace=wrap;fillColor=#fff2cc;gradientColor=#ffd966;strokeColor=#d6b656;" vertex="1" parent="1">
          <mxGeometry x="845" y="-1753" width="180" height="90" as="geometry" />
        </mxCell>
        <mxCell id="8f19t0Ze3PnC0a54eQCc-132" value="" style="shape=module;jettyWidth=8;jettyHeight=4;" vertex="1" parent="8f19t0Ze3PnC0a54eQCc-131">
          <mxGeometry x="1" width="20" height="20" relative="1" as="geometry">
            <mxPoint x="-27" y="7" as="offset" />
          </mxGeometry>
        </mxCell>
        <mxCell id="8f19t0Ze3PnC0a54eQCc-133" value="«&lt;b style=&quot;border-color: var(--border-color);&quot;&gt;&amp;nbsp;&lt;font style=&quot;font-size: 9px;&quot;&gt;Component&lt;/font&gt;&lt;/b&gt;»&lt;br&gt;&lt;b&gt;Broadcast service&amp;nbsp;&lt;br&gt;(SMS,Emails)&lt;/b&gt;" style="html=1;dropTarget=0;whiteSpace=wrap;fillColor=#fff2cc;gradientColor=#ffd966;strokeColor=#d6b656;" vertex="1" parent="1">
          <mxGeometry x="430" y="-1630" width="180" height="90" as="geometry" />
        </mxCell>
        <mxCell id="8f19t0Ze3PnC0a54eQCc-134" value="" style="shape=module;jettyWidth=8;jettyHeight=4;" vertex="1" parent="8f19t0Ze3PnC0a54eQCc-133">
          <mxGeometry x="1" width="20" height="20" relative="1" as="geometry">
            <mxPoint x="-27" y="7" as="offset" />
          </mxGeometry>
        </mxCell>
        <mxCell id="8f19t0Ze3PnC0a54eQCc-135" value="«&lt;b style=&quot;border-color: var(--border-color);&quot;&gt;&amp;nbsp;&lt;font style=&quot;font-size: 9px;&quot;&gt;Component&lt;/font&gt;&lt;/b&gt;»&lt;br&gt;&lt;b&gt;SEO&lt;/b&gt;" style="html=1;dropTarget=0;whiteSpace=wrap;fillColor=#fff2cc;gradientColor=#ffd966;strokeColor=#d6b656;glass=0;rounded=0;shadow=0;" vertex="1" parent="1">
          <mxGeometry x="640" y="-1630" width="180" height="90" as="geometry" />
        </mxCell>
        <mxCell id="8f19t0Ze3PnC0a54eQCc-136" value="" style="shape=module;jettyWidth=8;jettyHeight=4;" vertex="1" parent="8f19t0Ze3PnC0a54eQCc-135">
          <mxGeometry x="1" width="20" height="20" relative="1" as="geometry">
            <mxPoint x="-27" y="7" as="offset" />
          </mxGeometry>
        </mxCell>
        <mxCell id="8f19t0Ze3PnC0a54eQCc-137" value="«&lt;b style=&quot;border-color: var(--border-color);&quot;&gt;&amp;nbsp;&lt;font style=&quot;font-size: 9px;&quot;&gt;Component&lt;/font&gt;&lt;/b&gt;»&lt;br&gt;&lt;b&gt;Financial services&amp;nbsp;&lt;br&gt;(reconcilation)&amp;nbsp;&lt;/b&gt;" style="html=1;dropTarget=0;whiteSpace=wrap;fillColor=#fff2cc;gradientColor=#ffd966;strokeColor=#d6b656;" vertex="1" parent="1">
          <mxGeometry x="420" y="-1495" width="180" height="70" as="geometry" />
        </mxCell>
        <mxCell id="8f19t0Ze3PnC0a54eQCc-138" value="" style="shape=module;jettyWidth=8;jettyHeight=4;" vertex="1" parent="8f19t0Ze3PnC0a54eQCc-137">
          <mxGeometry x="1" width="20" height="20" relative="1" as="geometry">
            <mxPoint x="-27" y="7" as="offset" />
          </mxGeometry>
        </mxCell>
        <mxCell id="8f19t0Ze3PnC0a54eQCc-143" value="«&lt;b style=&quot;border-color: var(--border-color);&quot;&gt;&amp;nbsp;&lt;font style=&quot;font-size: 9px;&quot;&gt;Component&lt;/font&gt;&lt;/b&gt;»&lt;br&gt;&lt;b&gt;Payment process&amp;nbsp;&lt;/b&gt;" style="html=1;dropTarget=0;whiteSpace=wrap;fillColor=#fff2cc;gradientColor=#ffd966;strokeColor=#d6b656;" vertex="1" parent="1">
          <mxGeometry x="635" y="-1495" width="180" height="70" as="geometry" />
        </mxCell>
        <mxCell id="8f19t0Ze3PnC0a54eQCc-144" value="" style="shape=module;jettyWidth=8;jettyHeight=4;" vertex="1" parent="8f19t0Ze3PnC0a54eQCc-143">
          <mxGeometry x="1" width="20" height="20" relative="1" as="geometry">
            <mxPoint x="-27" y="7" as="offset" />
          </mxGeometry>
        </mxCell>
        <mxCell id="8f19t0Ze3PnC0a54eQCc-145" value="«&lt;b style=&quot;border-color: var(--border-color);&quot;&gt;&amp;nbsp;&lt;font style=&quot;font-size: 9px;&quot;&gt;Component&lt;/font&gt;&lt;/b&gt;»&lt;br&gt;&lt;b&gt;Sales management&amp;nbsp;&lt;br&gt;(Sales workflow )&lt;/b&gt;" style="html=1;dropTarget=0;whiteSpace=wrap;fillColor=#fff2cc;gradientColor=#ffd966;strokeColor=#d6b656;" vertex="1" parent="1">
          <mxGeometry x="845" y="-1495" width="180" height="70" as="geometry" />
        </mxCell>
        <mxCell id="8f19t0Ze3PnC0a54eQCc-146" value="" style="shape=module;jettyWidth=8;jettyHeight=4;" vertex="1" parent="8f19t0Ze3PnC0a54eQCc-145">
          <mxGeometry x="1" width="20" height="20" relative="1" as="geometry">
            <mxPoint x="-27" y="7" as="offset" />
          </mxGeometry>
        </mxCell>
        <mxCell id="8f19t0Ze3PnC0a54eQCc-147" value="" style="html=1;whiteSpace=wrap;fillColor=#f8cecc;strokeColor=#b85450;gradientColor=#ea6b66;" vertex="1" parent="1">
          <mxGeometry x="400" y="-1400" width="640" height="130" as="geometry" />
        </mxCell>
        <mxCell id="8f19t0Ze3PnC0a54eQCc-148" value="«subsystem»&lt;br style=&quot;border-color: var(--border-color);&quot;&gt;&lt;b style=&quot;border-color: var(--border-color);&quot;&gt;Intigration API&#39;s&amp;nbsp;&lt;/b&gt;" style="text;html=1;align=center;verticalAlign=middle;resizable=0;points=[];autosize=1;strokeColor=none;fillColor=none;" vertex="1" parent="1">
          <mxGeometry x="650" y="-1390" width="120" height="40" as="geometry" />
        </mxCell>
        <mxCell id="8f19t0Ze3PnC0a54eQCc-149" value="«API»&lt;br&gt;&lt;b&gt;Quote request&amp;nbsp;&lt;/b&gt;" style="html=1;whiteSpace=wrap;fillColor=#fff2cc;gradientColor=#ffd966;strokeColor=#d6b656;" vertex="1" parent="1">
          <mxGeometry x="420" y="-1340" width="120" height="50" as="geometry" />
        </mxCell>
        <mxCell id="8f19t0Ze3PnC0a54eQCc-150" value="«API»&lt;br&gt;&lt;b&gt;Online policy issuance&lt;/b&gt;" style="html=1;whiteSpace=wrap;fillColor=#fff2cc;gradientColor=#ffd966;strokeColor=#d6b656;" vertex="1" parent="1">
          <mxGeometry x="580" y="-1340" width="130" height="50" as="geometry" />
        </mxCell>
        <mxCell id="8f19t0Ze3PnC0a54eQCc-151" value="«API»&lt;br&gt;&lt;b&gt;Payment gateway&lt;/b&gt;" style="html=1;whiteSpace=wrap;fillColor=#fff2cc;gradientColor=#ffd966;strokeColor=#d6b656;" vertex="1" parent="1">
          <mxGeometry x="760" y="-1340" width="120" height="50" as="geometry" />
        </mxCell>
        <mxCell id="8f19t0Ze3PnC0a54eQCc-152" value="«API»&lt;br&gt;&lt;b&gt;SMS Gateway&lt;/b&gt;" style="html=1;whiteSpace=wrap;fillColor=#fff2cc;gradientColor=#ffd966;strokeColor=#d6b656;" vertex="1" parent="1">
          <mxGeometry x="910" y="-1340" width="125" height="50" as="geometry" />
        </mxCell>
        <mxCell id="8f19t0Ze3PnC0a54eQCc-153" value="" style="html=1;whiteSpace=wrap;fillColor=#f8cecc;strokeColor=#b85450;gradientColor=#ea6b66;" vertex="1" parent="1">
          <mxGeometry x="1080" y="-2109" width="210" height="839" as="geometry" />
        </mxCell>
        <mxCell id="8f19t0Ze3PnC0a54eQCc-154" value="«subsystem»&lt;br style=&quot;border-color: var(--border-color);&quot;&gt;&lt;b style=&quot;border-color: var(--border-color);&quot;&gt;Infrastructure services&lt;/b&gt;" style="text;html=1;align=center;verticalAlign=middle;resizable=0;points=[];autosize=1;strokeColor=none;fillColor=none;" vertex="1" parent="1">
          <mxGeometry x="1105" y="-2100" width="150" height="40" as="geometry" />
        </mxCell>
        <mxCell id="8f19t0Ze3PnC0a54eQCc-155" value="«&lt;b style=&quot;border-color: var(--border-color);&quot;&gt;&amp;nbsp;&lt;font style=&quot;font-size: 9px;&quot;&gt;Component&lt;/font&gt;&lt;/b&gt;»&lt;br&gt;&lt;div style=&quot;text-align: right;&quot;&gt;&lt;b style=&quot;background-color: initial;&quot;&gt;Security&amp;nbsp;&lt;/b&gt;&lt;/div&gt;" style="html=1;dropTarget=0;whiteSpace=wrap;fillColor=#fff2cc;gradientColor=#ffd966;strokeColor=#d6b656;perimeterSpacing=0;" vertex="1" parent="1">
          <mxGeometry x="1095" y="-2030" width="180" height="90" as="geometry" />
        </mxCell>
        <mxCell id="8f19t0Ze3PnC0a54eQCc-156" value="" style="shape=module;jettyWidth=8;jettyHeight=4;" vertex="1" parent="8f19t0Ze3PnC0a54eQCc-155">
          <mxGeometry x="1" width="20" height="20" relative="1" as="geometry">
            <mxPoint x="-27" y="7" as="offset" />
          </mxGeometry>
        </mxCell>
        <mxCell id="8f19t0Ze3PnC0a54eQCc-157" value="«&lt;b style=&quot;border-color: var(--border-color);&quot;&gt;&amp;nbsp;&lt;font style=&quot;font-size: 9px;&quot;&gt;Component&lt;/font&gt;&lt;/b&gt;»&lt;br&gt;&lt;b&gt;Monitor and analytics&lt;/b&gt;" style="html=1;dropTarget=0;whiteSpace=wrap;fillColor=#fff2cc;gradientColor=#ffd966;strokeColor=#d6b656;" vertex="1" parent="1">
          <mxGeometry x="1095" y="-1910" width="180" height="90" as="geometry" />
        </mxCell>
        <mxCell id="8f19t0Ze3PnC0a54eQCc-158" value="" style="shape=module;jettyWidth=8;jettyHeight=4;" vertex="1" parent="8f19t0Ze3PnC0a54eQCc-157">
          <mxGeometry x="1" width="20" height="20" relative="1" as="geometry">
            <mxPoint x="-27" y="7" as="offset" />
          </mxGeometry>
        </mxCell>
        <mxCell id="8f19t0Ze3PnC0a54eQCc-159" value="«&lt;b style=&quot;border-color: var(--border-color);&quot;&gt;&amp;nbsp;&lt;font style=&quot;font-size: 9px;&quot;&gt;Component&lt;/font&gt;&lt;/b&gt;»&lt;br&gt;&lt;b&gt;Auditing&lt;/b&gt;" style="html=1;dropTarget=0;whiteSpace=wrap;fillColor=#fff2cc;gradientColor=#ffd966;strokeColor=#d6b656;" vertex="1" parent="1">
          <mxGeometry x="1095" y="-1680" width="180" height="90" as="geometry" />
        </mxCell>
        <mxCell id="8f19t0Ze3PnC0a54eQCc-160" value="" style="shape=module;jettyWidth=8;jettyHeight=4;" vertex="1" parent="8f19t0Ze3PnC0a54eQCc-159">
          <mxGeometry x="1" width="20" height="20" relative="1" as="geometry">
            <mxPoint x="-27" y="7" as="offset" />
          </mxGeometry>
        </mxCell>
        <mxCell id="8f19t0Ze3PnC0a54eQCc-161" value="«&lt;b style=&quot;border-color: var(--border-color);&quot;&gt;&amp;nbsp;&lt;font style=&quot;font-size: 9px;&quot;&gt;Component&lt;/font&gt;&lt;/b&gt;»&lt;br&gt;&lt;div style=&quot;text-align: right;&quot;&gt;&lt;b style=&quot;background-color: initial;&quot;&gt;Notifications &amp;amp; alerts&amp;nbsp;&amp;nbsp;&lt;/b&gt;&lt;/div&gt;" style="html=1;dropTarget=0;whiteSpace=wrap;fillColor=#fff2cc;gradientColor=#ffd966;strokeColor=#d6b656;perimeterSpacing=0;" vertex="1" parent="1">
          <mxGeometry x="1095" y="-1793" width="180" height="90" as="geometry" />
        </mxCell>
        <mxCell id="8f19t0Ze3PnC0a54eQCc-162" value="" style="shape=module;jettyWidth=8;jettyHeight=4;" vertex="1" parent="8f19t0Ze3PnC0a54eQCc-161">
          <mxGeometry x="1" width="20" height="20" relative="1" as="geometry">
            <mxPoint x="-27" y="7" as="offset" />
          </mxGeometry>
        </mxCell>
        <mxCell id="8f19t0Ze3PnC0a54eQCc-163" value="-" style="text;html=1;align=center;verticalAlign=middle;resizable=0;points=[];autosize=1;strokeColor=none;fillColor=none;" vertex="1" parent="1">
          <mxGeometry x="135" y="-1232" width="30" height="30" as="geometry" />
        </mxCell>
      </root>
    </mxGraphModel>
  </diagram>
</mxfile>
